# xmcd
#
# Track frame offsets:
#	150
#	4734
#	24398
#	41593
#	60667
#	74293
#	83021
#	102748
#	126969
#	152873
#	170866
#	205298
#	226367
#	246901
#
# Disc length: 3600 seconds
#
# Revision: 0
# Processed by: cddbd v1.5.1PL2 Copyright (c) Steve Scherf et al.
# Submitted via: EasyCDDAExtractor 9.0.0.1
#
DISCID=c10e0e0e
DTITLE=New Riders of the Purple Sage - Capital Theatre Port Chester NY - 6-24-
DTITLE=1970 (Disk 2)
DYEAR=1970
DGENRE=Country/Rock
TTITLE0=Tuning and Intro
TTITLE1=Six Days on the Road
TTITLE2=Superman
TTITLE3=I Don't Know You
TTITLE4=Broken String and Dropped Hat
TTITLE5=Together Again (Instrumental)
TTITLE6=Fair Chance to Know
TTITLE7=Portland Woman
TTITLE8=Garden of Eden
TTITLE9=Henry
TTITLE10=All I Ever Wanted
TTITLE11=Dilah
TTITLE12=Louisiana Lady
TTITLE13=Honky Tonk Woman
EXTD=
EXTT0=
EXTT1=
EXTT2=
EXTT3=
EXTT4=
EXTT5=
EXTT6=
EXTT7=
EXTT8=
EXTT9=
EXTT10=
EXTT11=
EXTT12=
EXTT13=
PLAYORDER=
